<svg xmlns="http://www.w3.org/2000/svg" viewBox="0 0 100 100" width="100" height="100">
  <!-- Pufferfish body -->
  <circle cx="50" cy="50" r="40" fill="#ffde59" />
  <!-- Spikes -->
  <polygon points="50,0 55,30 45,30" fill="#ffde59" />
  <polygon points="50,100 55,70 45,70" fill="#ffde59" />
  <polygon points="0,50 30,55 30,45" fill="#ffde59" />
  <polygon points="100,50 70,55 70,45" fill="#ffde59" />
  <polygon points="14.64,14.64 35.36,35.36 28.28,42.42" fill="#ffde59" />
  <polygon points="85.36,14.64 64.64,35.36 71.72,42.42" fill="#ffde59" />
  <polygon points="14.64,85.36 35.36,64.64 28.28,57.58" fill="#ffde59" />
  <polygon points="85.36,85.36 64.64,64.64 71.72,57.58" fill="#ffde59" />
  <!-- Eyes -->
  <circle cx="65" cy="40" r="7" fill="white" />
  <circle cx="65" cy="40" r="3" fill="black" />
  <!-- Mouth -->
  <path d="M40,60 Q50,70 60,60" fill="none" stroke="#ff6b35" stroke-width="3" stroke-linecap="round" />
  <!-- Fins -->
  <path d="M10,50 Q25,40 30,50 Q25,60 10,50" fill="#ff914d" />
  <path d="M75,30 Q85,15 95,30 Q85,40 75,30" fill="#ff914d" />
  <path d="M75,70 Q85,85 95,70 Q85,60 75,70" fill="#ff914d" />
</svg> 